<svg role="img" viewBox="0 0 24 24" xmlns="http://www.w3.org/2000/svg"><title>Adobe Animate</title><path d="M8.804 18.276H3.626L2.564 23.65a.265.433 0 0 1-.27.332H-.327q-.224 0-.158-.406L4.016 2.453c.045-.22.09-.417.135-.7a4.8 7.893 0 0 0 .09-1.494.14.228 0 0 1 .157-.257H7.96q.156 0 .18.183l5.069 23.428q.067.368-.135.368h-2.913a.207.342 0 0 1-.222-.259Zm-4.362-4.544h3.542q-.135-.737-.314-1.659-.18-.922-.381-1.973l-.404-2.098q-.202-1.051-.37-2.029-.167-.975-.302-1.786H6.19a18.112 29.785 0 0 1-.47 2.947q-.316 1.658-.64 3.392-.326 1.733-.639 3.206ZM14.78 23.63V10.044q0-.627-.011-1.401-.012-.775-.034-1.474a29.012 46.516 0 0 0-.044-1.171.134.219 0 0 1 .022-.221.182.301 0 0 1 .134-.074h2.237a.501.826 0 0 1 .224.074.212.346 0 0 1 .113.259l.1.497a2.301 3.783 0 0 1 .08.746 4.502 7.404 0 0 1 1.478-1.42 5.091 8.372 0 0 1 1.681-.46 4.264 7.01 0 0 1 1.312.35 3.313 5.446 0 0 1 2.117 3.394c.224.944.312 2.165.312 3.665v10.82q0 .331-.178.331l-2.62.038a.198.326 0 0 1-.223-.368V13.36a3.09 5.082 0 0 0-.271-1.99 1.601 2.634 0 0 0-.571-1.144 1.687 2.774 0 0 0-.954-.406 2.788 4.585 0 0 0-1.054.313 2.658 4.37 0 0 0-.828.868v12.627q0 .33-.18.33h-2.64a.178.292 0 0 1-.202-.33z"/></svg>